<svg id="Layer_1" data-name="Layer 1" xmlns="http://www.w3.org/2000/svg" viewBox="0 0 214.56 215.05"><defs><style>.cls-1{fill:#ce3948;}.cls-2{fill:#cc5466;}.cls-3{fill:#fff;}.cls-4,.cls-5{fill:#631e28;}.cls-4{opacity:0.2;}</style></defs><title>dining2</title><path class="cls-1" d="M725.37,395.73a107.23,107.23,0,1,1-20.51-63.1A107.25,107.25,0,0,1,725.37,395.73Z" transform="translate(-510.87 -288.48)"/><path class="cls-2" d="M528.22,454.23L702.06,329s23.31,27,23.31,66.75c0,0,3.34,49.17-40.83,84.21,0,0-34.65,31.93-84.66,21.48,0,0-33.66-.55-70-45" transform="translate(-510.87 -288.48)"/><circle class="cls-3" cx="106.81" cy="107.52" r="61.5"/><circle class="cls-4" cx="106.81" cy="106.91" r="38.59"/><path class="cls-3" d="M617.69,361.38V429s31.16,0.61,34.21-33C651.9,396,651.49,363.82,617.69,361.38Z" transform="translate(-510.87 -288.48)"/><path class="cls-5" d="M547.08,444.66s0.41,9,7.53,9c0,0,7.53,1.43,9-9l-5.09-59.06s8.15-1.83,8.15-16.9l-3.05-32.38h-2l0.41,32.58h-2l-1.63-32.58h-1.43V368.9H554V336.32h-1.43l-1.83,32.79h-2V336.32h-2.44L544,366s-2.65,14.05,8.15,20.16Z" transform="translate(-510.87 -288.48)"/><path class="cls-5" d="M676.48,385.41l-4.68,57.43s0.41,9.77,7.53,9.77c0,0,8.55-.41,8.55-9.57L683,385.41s13.44-5.5,13.44-22.2c0,0-2.24-25.25-16.09-25.25,0,0-16.29-.2-16.29,24.44C664.06,362.4,661.82,379.3,676.48,385.41Z" transform="translate(-510.87 -288.48)"/></svg>