<svg id="Layer_1" data-name="Layer 1" xmlns="http://www.w3.org/2000/svg" viewBox="0 0 214.56 215.05"><defs><style>.cls-1{fill:#ce3948;}.cls-2{fill:#ba3c54;}.cls-3{fill:#fff;}.cls-4,.cls-5{fill:#631e28;}.cls-5{opacity:0.2;}</style></defs><title>staff2</title><path class="cls-1" d="M694.21,368.73a107.23,107.23,0,1,1-20.51-63.1A107.25,107.25,0,0,1,694.21,368.73Z" transform="translate(-479.71 -261.48)"/><path class="cls-2" d="M497.05,427.24L670.9,302s23.31,27,23.31,66.75c0,0,3.34,49.17-40.83,84.21,0,0-34.65,31.93-84.66,21.48,0,0-33.43-.37-69.78-44.87" transform="translate(-479.71 -261.48)"/><path class="cls-3" d="M648.25,364.47h0a28.47,28.47,0,1,0-33.18,0h0s-27.77,11.32-27.77,40.8c0,0-2,19.28,44.37,19.28,0,0,44.08,2,44.08-21.55C675.73,403,673.21,374.13,648.25,364.47Z" transform="translate(-479.71 -261.48)"/><path class="cls-4" d="M562.57,364.47h0a28.47,28.47,0,1,0-33.18,0h0s-27.77,11.32-27.77,40.8c0,0-2,19.28,44.37,19.28,0,0,44.08,2,44.08-21.55C590.05,403,587.53,374.13,562.57,364.47Z" transform="translate(-479.71 -261.48)"/><path class="cls-5" d="M648.25,364.47h0a28.47,28.47,0,1,0-33.18,0h0s-27.77,11.32-27.77,40.8c0,0-2,19.28,44.37,19.28,0,0,44.08,2,44.08-21.55C675.73,403,673.21,374.13,648.25,364.47Z" transform="translate(-479.71 -261.48)"/><path class="cls-3" d="M612.33,362.73h0a40.07,40.07,0,1,0-46.7,0h0s-39.09,15.93-39.09,57.43c0,0-2.79,27.14,62.45,27.14,0,0,62.05,2.79,62.05-30.33C651,417,647.46,376.33,612.33,362.73Z" transform="translate(-479.71 -261.48)"/></svg>