<svg id="Layer_1" data-name="Layer 1" xmlns="http://www.w3.org/2000/svg" viewBox="0 0 214.56 215.05"><defs><style>.cls-1{fill:#ce3948;}.cls-2{fill:#cc5466;}.cls-3{fill:#fff;}.cls-4{fill:#9b374e;opacity:0.2;}.cls-5{fill:#601d27;}</style></defs><title>academics2</title><path class="cls-1" d="M712.5,373A107.23,107.23,0,1,1,692,309.86,107.25,107.25,0,0,1,712.5,373Z" transform="translate(-498 -265.7)"/><path class="cls-2" d="M515.35,431.46L689.19,306.2s23.31,27,23.31,66.75c0,0,3.34,49.17-40.83,84.21,0,0-34.65,31.93-84.66,21.48,0,0-33.33-.48-69.68-45" transform="translate(-498 -265.7)"/><path class="cls-3" d="M537.45,326.26s-1.57-6.67,5.62-6.67h42.63s15.17-.13,19.48,7.58c0,0,9-8,19.09-7.58h45.51a3.91,3.91,0,0,1,3.4,4.27v95a3.93,3.93,0,0,1-4.18,3.92s-32.1-.73-42.76,0c-11.51.78-17.52,5.62-17.52,5.62h-6.8s-9.15-5.49-16-5.49H541.64a4,4,0,0,1-4.33-4.32Z" transform="translate(-498 -265.7)"/><path class="cls-4" d="M543.34,327V323.2H586s11.51-1.13,14.65,5.15v93.89s-9.15-5.23-14.12-5H543.34V323.2" transform="translate(-498 -265.7)"/><path class="cls-5" d="M552.27,339.34h17.42a1.21,1.21,0,0,0,.67-0.53v-2.63a1,1,0,0,0-.39-0.55H552.13a1.47,1.47,0,0,0-.82.61v2.27A1.77,1.77,0,0,0,552.27,339.34Z" transform="translate(-498 -265.7)"/><path class="cls-5" d="M553.33,349h36.59a3,3,0,0,0,1.41-.53v-2.63a1.46,1.46,0,0,0-.82-0.55H553a3.87,3.87,0,0,0-1.73.61v2.27A4.12,4.12,0,0,0,553.33,349Z" transform="translate(-498 -265.7)"/><path class="cls-5" d="M553.33,357.25h36.59a3,3,0,0,0,1.41-.53v-2.63a1.46,1.46,0,0,0-.82-0.55H553a3.87,3.87,0,0,0-1.73.61v2.27A4.12,4.12,0,0,0,553.33,357.25Z" transform="translate(-498 -265.7)"/><path class="cls-5" d="M553.33,365.49h36.59a3,3,0,0,0,1.41-.53v-2.63a1.46,1.46,0,0,0-.82-0.55H553a3.87,3.87,0,0,0-1.73.61v2.27A4.12,4.12,0,0,0,553.33,365.49Z" transform="translate(-498 -265.7)"/><path class="cls-5" d="M553.33,373.73h36.59a3,3,0,0,0,1.41-.53v-2.63a1.46,1.46,0,0,0-.82-0.55H553a3.87,3.87,0,0,0-1.73.61v2.27A4.12,4.12,0,0,0,553.33,373.73Z" transform="translate(-498 -265.7)"/><path class="cls-5" d="M553.33,381.18h36.59a3,3,0,0,0,1.41-.53V378a1.46,1.46,0,0,0-.82-0.55H553a3.87,3.87,0,0,0-1.73.61v2.27A4.12,4.12,0,0,0,553.33,381.18Z" transform="translate(-498 -265.7)"/><path class="cls-5" d="M553.33,389.42h36.59a3,3,0,0,0,1.41-.53v-2.63a1.46,1.46,0,0,0-.82-0.55H553a3.87,3.87,0,0,0-1.73.61v2.27A4.12,4.12,0,0,0,553.33,389.42Z" transform="translate(-498 -265.7)"/><path class="cls-5" d="M553.33,397.66h36.59a3,3,0,0,0,1.41-.53v-2.63a1.46,1.46,0,0,0-.82-0.55H553a3.87,3.87,0,0,0-1.73.61v2.27A4.12,4.12,0,0,0,553.33,397.66Z" transform="translate(-498 -265.7)"/><path class="cls-5" d="M553.33,404.72h36.59a3,3,0,0,0,1.41-.53v-2.63a1.46,1.46,0,0,0-.82-0.55H553a3.87,3.87,0,0,0-1.73.61v2.27A4.12,4.12,0,0,0,553.33,404.72Z" transform="translate(-498 -265.7)"/><path class="cls-5" d="M655.52,377.93a8.17,8.17,0,0,0-3-5.64l1.24-1.07c2.89-18-17.94-25.13-17.94-25.13,5.78,4.64-6.19,15.71-6.19,15.71-4.85,3.85-2.06-4-2.06-4-8.15,9.69-6.7,17.7-6.7,17.7a18,18,0,0,0,8,12.58H649C656.45,383.35,655.52,377.93,655.52,377.93Zm-16-27.43A22.75,22.75,0,0,1,651.24,370c-0.69-.75-4.72-1.51-4.72-1.51-1.77-.2-4-2.06-4-2.06-2.06-1.38.59-5.6,0.59-5.6a26,26,0,0,0-10.77,8.9c-1.38-.69-3.54-4.52-3.54-4.52C637.23,357.62,639.51,350.49,639.51,350.49Zm-11.09,35a33.84,33.84,0,0,1-3.78-5.37c-4.87-10,1.92-16.21,1.92-16.21,0.44,5,5.78,8.61,5.78,8.61,5.12,6.16,0,13,0,13C630.82,387.56,628.42,385.53,628.42,385.53Zm18.79,0.78h-14a13.91,13.91,0,0,0,3.49-7.69s-0.2-4.66-1.77-6.82c0,0,0-5,4.54-7a5.44,5.44,0,0,0,3.86,5.19s9.87,1.88,9.92,8.38C653.3,378.37,653.4,381.59,647.21,386.31Z" transform="translate(-498 -265.7)"/><path class="cls-5" d="M616,389.2l6.39,8.46h33.52l5.57-8.46H616Zm7.24,7.08-3.35-5.71h7.58l2.17,5.71h-6.39Zm14.54,0h-5.47l-2.68-5.71h8.15v5.71Zm1.91,0v-5.71h8.15l-2.68,5.71h-5.47Zm14.54,0h-6.39l2.17-5.71h7.58Z" transform="translate(-498 -265.7)"/></svg>