<svg id="Layer_1" data-name="Layer 1" xmlns="http://www.w3.org/2000/svg" viewBox="0 0 214.56 215.05"><defs><style>.cls-1{fill:#ce3948;}.cls-2{fill:#cc5466;}.cls-3{fill:#fff;}.cls-4{fill:#631e28;}.cls-5{fill:#9b374e;opacity:0.2;}</style></defs><title>events2</title><path class="cls-1" d="M726.87,392.29a107.23,107.23,0,1,1-20.51-63.1A107.25,107.25,0,0,1,726.87,392.29Z" transform="translate(-512.37 -285.04)"/><path class="cls-2" d="M529.72,450.8L703.56,325.54s23.31,27,23.31,66.75c0,0,3.34,49.17-40.83,84.21,0,0-34.65,31.93-84.66,21.48,0,0-33.53,0-69.88-44.49" transform="translate(-512.37 -285.04)"/><path class="cls-3" d="M601.92,306.54s-6-8.33-12-2.35l-5.4,5.63s3.75,15.48-9.85,9.85l-6.57,6.57s3.75,13.6-9.62,8.91L552.66,341s4.93,14.78-9.38,9.85L536,358.39s-2.11,4.92,3,9.61l16.19,16.42s18.34-4.22,13.51,13.84L638,467.69s6.57,8,13.14,0l4.93-5.63S650.24,448,665,453.85l6.33-7.51s-4.93-14.54,9.15-8.21l6.8-7.27s-6.33-13.37,9.15-8.44l6.33-6.8s3.28-6.1-2.81-11.26L632.41,337s-19,2.81-14.78-13.84Z" transform="translate(-512.37 -285.04)"/><path class="cls-4" d="M569,361.49l27.66-27.66a2.71,2.71,0,0,0,.22-1.9l-4.18-4.18a2.2,2.2,0,0,0-1.5-.25l-28.33,28.33a3.29,3.29,0,0,0-.34,2.27l3.61,3.61A4,4,0,0,0,569,361.49Z" transform="translate(-512.37 -285.04)"/><path class="cls-1" d="M611.34,346.18L621.48,336a1.27,1.27,0,0,0-.11-0.89l-2.48-2.48a1.46,1.46,0,0,0-.75-0.29l-10.38,10.38a1.47,1.47,0,0,0,.09,1L610,346A2,2,0,0,0,611.34,346.18Z" transform="translate(-512.37 -285.04)"/><path class="cls-1" d="M597.09,360.25l10.14-10.14a1.27,1.27,0,0,0-.11-0.89l-2.48-2.48a1.46,1.46,0,0,0-.75-0.29l-10.38,10.38a1.47,1.47,0,0,0,.09,1l2.14,2.14A2,2,0,0,0,597.09,360.25Z" transform="translate(-512.37 -285.04)"/><path class="cls-5" d="M590.88,398.2l45.27,45.27s3,4.46,6.57,0l34.25-34s1.88-4.69-1.64-6.8L631,358.79s-3.52-3-5.86-1.17l-34.25,34.24S587.36,395.15,590.88,398.2Zm64.66,12.57-22.6-21.52c-0.31-.3,0-2.5.42-2.94l4.54-4.77a3.21,3.21,0,0,1,2.28-.26l23.14,22a3.17,3.17,0,0,1-.59,1.64l-5.26,5.52A2.76,2.76,0,0,1,655.54,410.77ZM609,389.92l4.54-4.77a3.84,3.84,0,0,1,2.74.18l33.08,31.5a2.85,2.85,0,0,1-.38,1.85l-5.26,5.52a3.19,3.19,0,0,1-2.3-.07l-32.31-30.76A4.76,4.76,0,0,1,609,389.92Z" transform="translate(-512.37 -285.04)"/><path class="cls-1" d="M583,373.8l10.14-10.14a1.27,1.27,0,0,0-.11-0.89l-2.48-2.48a1.46,1.46,0,0,0-.75-0.29l-10.38,10.38a1.47,1.47,0,0,0,.09,1l2.14,2.14A2,2,0,0,0,583,373.8Z" transform="translate(-512.37 -285.04)"/><path class="cls-1" d="M568.59,388l10.14-10.14a1.27,1.27,0,0,0-.11-0.89l-2.48-2.48a1.46,1.46,0,0,0-.75-0.29L565,384.63a1.47,1.47,0,0,0,.09,1l2.14,2.14A2,2,0,0,0,568.59,388Z" transform="translate(-512.37 -285.04)"/></svg>