<svg id="Layer_1" data-name="Layer 1" xmlns="http://www.w3.org/2000/svg" viewBox="0 0 122.79 125.79"><defs><style>.cls-1{fill:#fff;}</style></defs><title>home2</title><path class="cls-1" d="M660.22,381.12c0,6.76,0,13.07,0,19.37,0,7.59.13,15.19,0.18,22.78q0,7.68,0,15.35c0,2.9-1.2,4.32-3.85,4.33-9,0-18.07,0-27.11,0a10.56,10.56,0,0,1-1.2-.17V413H597.1v29.83c-1.07.05-1.85,0.13-2.63,0.13h-29c-3.1,0-3.85-.76-3.85-4q0-27.23,0-54.45V381.6c-2.67,0-5.19,0-7.72,0a4,4,0,0,1-4-2.37c-0.79-1.7-.1-2.92,1.17-4.19q27.35-27.27,54.62-54.61c1.51-1.51,2.66-3.8,5.38-3.13a7.76,7.76,0,0,1,3.55,1.49q28.23,28.07,56.28,56.32c0.87,0.88,1.78,3,1.34,3.62a6.41,6.41,0,0,1-4,2.28A59.82,59.82,0,0,1,660.22,381.12Z" transform="translate(-549.56 -317.19)"/></svg>