<svg id="Layer_1" data-name="Layer 1" xmlns="http://www.w3.org/2000/svg" viewBox="0 0 83.51 83.14"><defs><style>.cls-1{fill:#fff;}</style></defs><title>left2</title><path class="cls-1" d="M647.26,356c22.18-.84,43.38,18,41.84,44.39a41.77,41.77,0,0,1-83.43-2.84C605.5,375,624.61,355.27,647.26,356ZM630.4,398a20.69,20.69,0,0,0,2.14,3.49c5.49,5.8,11.1,11.48,16.58,17.28,2.51,2.66,3.62,3,6.84,1.39a6.06,6.06,0,0,0,1.66-9.91c-3.05-3-6.13-6.06-9.18-9.11-2.26-2.26-2.24-3.3,0-5.61,3.22-3.33,6.48-6.61,9.62-10,2-2.18,1.68-5.13-.63-7.39s-6.36-2.63-8.19-.79c-5.52,5.55-11,11.1-16.45,16.74A21.78,21.78,0,0,0,630.4,398Z" transform="translate(-605.67 -356)"/></svg>