<?xml version="1.0" encoding="utf-8"?>
<!-- Generator: Adobe Illustrator 19.2.1, SVG Export Plug-In . SVG Version: 6.00 Build 0)  -->
<svg version="1.1" id="Layer_1" xmlns="http://www.w3.org/2000/svg" xmlns:xlink="http://www.w3.org/1999/xlink" x="0px" y="0px"
	 viewBox="0 0 83.5 83.1" style="enable-background:new 0 0 83.5 83.1;" xml:space="preserve">
<style type="text/css">
	.st0{fill:#FFFFFF;}
</style>
<title>left2</title>
<path class="st0" d="M41.6,0C63.8-0.8,85,18,83.4,44.4c-1.7,23-21.7,40.3-44.7,38.6C17,81.4,0.1,63.4,0,41.6
	C-0.2,19,18.9-0.7,41.6,0z M24.7,42c0.6,1.2,1.3,2.4,2.1,3.5C32.4,51.3,38,57,43.5,62.8c2.5,2.7,3.6,3,6.8,1.4c3-1.4,4.4-5,3-8
	c-0.3-0.7-0.8-1.3-1.3-1.9c-3-3-6.1-6.1-9.2-9.1c-2.3-2.3-2.2-3.3,0-5.6c3.2-3.3,6.5-6.6,9.6-10c2-2.2,1.7-5.1-0.6-7.4
	s-6.4-2.6-8.2-0.8c-5.5,5.5-11,11.1-16.5,16.7C26.2,39.3,25.4,40.6,24.7,42z"/>
</svg>
