<svg id="Layer_1" data-name="Layer 1" xmlns="http://www.w3.org/2000/svg" viewBox="0 0 214.56 215.05"><defs><style>.cls-1{fill:#ce3948;}.cls-2{fill:#cc5466;}.cls-3{fill:#fff;}.cls-4{fill:none;stroke:#9b374e;stroke-miterlimit:10;stroke-width:8px;opacity:0.2;}.cls-5{fill:#9b374e;}</style></defs><title>map</title><path class="cls-1" d="M668,344a107.23,107.23,0,1,1-20.51-63.1A107.25,107.25,0,0,1,668,344Z" transform="translate(-453.47 -236.72)"/><path class="cls-2" d="M470.82,402.47L644.66,277.22S668,304.22,668,344c0,0,3.34,49.17-40.83,84.21,0,0-34.65,31.93-84.66,21.48,0,0-33.87-.54-70.22-45" transform="translate(-453.47 -236.72)"/><path class="cls-3" d="M512.4,332.15s-7.77-1.35-7.77,6v58.27s-1.34,7.77,7.77,7.77h93.49s9.11,2.95,9.11-7V338.17s-0.27-6.12-5.89-6.12Z" transform="translate(-453.47 -236.72)"/><line class="cls-4" x1="109.86" y1="120.47" x2="161.53" y2="120.47"/><path class="cls-4" d="M546.5,347.5l-18.13,51.79a25.46,25.46,0,0,0-1.3,4.92" transform="translate(-453.47 -236.72)"/><path class="cls-3" d="M559.21,367.44s-34-37-34-60.42c0,0-1.47-37.62,34.76-37.62,0,0,33.55.24,33.55,37.62C593.57,307,592.53,334.12,559.21,367.44Z" transform="translate(-453.47 -236.72)"/><path class="cls-5" d="M559.21,367.44s-34-37-34-60.42c0,0-1.47-37.62,34.76-37.62,0,0,33.55.24,33.55,37.62C593.57,307,592.53,334.12,559.21,367.44Z" transform="translate(-453.47 -236.72)"/><circle class="cls-3" cx="105.34" cy="66.97" r="6.44"/><path class="cls-4" d="M504.56,352.83c5.19,0,3.64-.09,9.77,5.3,12.18,10.72,34.46,26.72,58.88,26.72,0,0,24.29.17,39.46-6.56,0.41-.18.43,0.11,2.33,0.08" transform="translate(-453.47 -236.72)"/><path class="cls-4" d="M569.86,404.23a3.65,3.65,0,0,1,.64-2c3.28-4.45,18.28-17.66,41.06-22.59A13.18,13.18,0,0,1,615,379" transform="translate(-453.47 -236.72)"/></svg>