<svg id="Layer_1" data-name="Layer 1" xmlns="http://www.w3.org/2000/svg" viewBox="0 0 214.56 215.05"><defs><style>.cls-1{fill:#ce3948;}.cls-2{fill:#cc5466;}.cls-3,.cls-6{fill:none;stroke:#631e28;stroke-miterlimit:10;stroke-width:8px;}.cls-4{fill:#fff;}.cls-5,.cls-7{fill:#631e28;}.cls-5,.cls-6{opacity:0.2;}</style></defs><title>student2</title><path class="cls-1" d="M694.21,368.73a107.23,107.23,0,1,1-20.51-63.1A107.25,107.25,0,0,1,694.21,368.73Z" transform="translate(-479.71 -261.48)"/><path class="cls-2" d="M497.05,427.24L670.9,302s23.31,27,23.31,66.75c0,0,3.34,49.17-40.83,84.21,0,0-34.65,31.93-84.66,21.48,0,0-33.62-.51-70-45" transform="translate(-479.71 -261.48)"/><path class="cls-3" d="M565.63,308.94S572.5,294.25,587,293.1c0,0,16.63.65,20.73,14.84" transform="translate(-479.71 -261.48)"/><path class="cls-4" d="M531.46,326.48S533.35,307,544.7,307h85.46s12.3,5.29,12.3,19.51v92.43s-1.89,16.71-16.08,16.71H546S531.46,434,531.46,420.8V326.48Z" transform="translate(-479.71 -261.48)"/><path class="cls-5" d="M543.28,395.42s0.71-11.26,10.17-11.26h66.69s10.41,1.56,10.41,11.26v19.39s-2.37,9-10.41,9H553s-9.7-3.07-9.7-9.46V395.42Z" transform="translate(-479.71 -261.48)"/><path class="cls-6" d="M533.42,317.82c4.91,1.74,1.87,8,5.41,16.77,4.38,10.91,10.92,25.35,23.61,25.35h50.85s18.32,3.91,25-37.29c0,0-1.35-6.07,1-7.2" transform="translate(-479.71 -261.48)"/><path class="cls-7" d="M559.72,394.38h58.42a8.3,8.3,0,0,0,2.24-.41V391.9a3.07,3.07,0,0,0-1.31-.43H559.25a10.84,10.84,0,0,0-2.76.47v1.78A11,11,0,0,0,559.72,394.38Z" transform="translate(-479.71 -261.48)"/><path class="cls-7" d="M569.71,404.73H607.8a4.18,4.18,0,0,0,1.46-.37v-1.82a1.69,1.69,0,0,0-.86-0.38h-39a5.43,5.43,0,0,0-1.8.42v1.57A5.59,5.59,0,0,0,569.71,404.73Z" transform="translate(-479.71 -261.48)"/><path class="cls-7" d="M559.72,415.41h58.42a8.27,8.27,0,0,0,2.24-.42v-2.07a3.07,3.07,0,0,0-1.31-.43H559.25a10.81,10.81,0,0,0-2.76.48v1.78A11,11,0,0,0,559.72,415.41Z" transform="translate(-479.71 -261.48)"/><path class="cls-7" d="M572.38,365.74V354a2.49,2.49,0,0,0-1.17-.45h-5.83a3.94,3.94,0,0,0-1.22.26v12a2.75,2.75,0,0,0,1.34.55h5A4.15,4.15,0,0,0,572.38,365.74Z" transform="translate(-479.71 -261.48)"/><path class="cls-7" d="M611.25,365.74V354a2.49,2.49,0,0,0-1.17-.45h-5.83a3.94,3.94,0,0,0-1.22.26v12a2.75,2.75,0,0,0,1.34.55h5A4.15,4.15,0,0,0,611.25,365.74Z" transform="translate(-479.71 -261.48)"/></svg>